<?xml version="1.0" encoding="UTF-8" standalone="no"?>
<!DOCTYPE svg PUBLIC "-//W3C//DTD SVG 1.1//EN" "http://www.w3.org/Graphics/SVG/1.1/DTD/svg11.dtd">
<svg width="100%" height="100%" viewBox="0 0 481 481" version="1.1" xmlns="http://www.w3.org/2000/svg" xmlns:xlink="http://www.w3.org/1999/xlink" xml:space="preserve" xmlns:serif="http://www.serif.com/" style="fill-rule:evenodd;clip-rule:evenodd;stroke-linejoin:round;stroke-miterlimit:1.41421;">
    <g transform="matrix(1.3159,0.487439,-0.487439,1.3159,-385.92,-456.861)">
        <g id="Artboard1">
            <path d="M452.966,269.381C450.979,271.248 448.592,270.117 450.645,266.632C481.458,214.32 534.6,198.495 582.537,210.429C619.954,219.744 634.873,232.593 659.687,259.628C675.7,267.928 697.009,293.157 694.573,309.495L698.411,324.585L717.95,345.185C725.504,354.145 727.81,361.899 725.768,368.656L720.079,372.251L717.983,378.589L707.325,377.347L703.231,379.46L706.325,387.73L701.118,387.23L701.618,390.841C693.027,385.164 689.798,381.412 690.237,378.976C680.503,378.987 674.97,378.035 671.438,376.622C664.273,389.364 664.262,404.81 664.264,420.261C663.491,443.262 653.879,459.938 639.794,473.411C639.56,474.187 640.276,474.529 639.504,475.068C622.912,481.802 524.871,518.42 489.793,530.524C488.867,525.307 463.528,460.246 457.564,443.49C459.823,441.562 461.973,439.717 463.853,438.048C471.582,433.417 477.051,420.758 497.111,424.251C503.993,425.283 530.726,410.628 548.549,408.267C555.042,396.712 562.623,385.492 583.323,378.314C586.275,367.082 590.859,355.591 606.395,348.607C605.232,344.616 608.371,338.273 609.777,333.878C619.356,327.816 625.198,316.639 634.462,313.478C633.101,305.797 632.428,298.235 635.075,291.249C643.134,296.84 647.165,303.307 649.44,310.158L653.536,306.304L654.405,301.226L643.024,283.058C615.413,264.665 568.844,268.767 504.782,293.626C503.576,294.094 502.877,293.458 503.846,292.647C524.6,275.261 576.005,253.837 612.913,253.007C574.735,221.895 508.382,217.318 452.966,269.381Z" style="fill:rgb(5,230,255);"/>
        </g>
    </g>
</svg>
