<svg viewBox="0 0 481 481" xmlns="http://www.w3.org/2000/svg" fill-rule="evenodd" clip-rule="evenodd" stroke-linejoin="round" stroke-miterlimit="1.414"><path d="M78.831 118.41c-3.525 1.489-6.114-1.163-1.714-4.748 66.046-53.818 143.689-48.739 200.952-9.668 44.697 30.496 58.065 54.676 77.54 102.347 17.026 18.727 32.769 62.313 21.6 82.624l-2.305 21.728 15.67 36.632c5.573 15.472 4.827 26.8-1.153 34.696l-9.239 1.958-5.847 7.318-13.42-6.83-6.417.786.04 12.39-6.608-3.196-1.102 4.996c-8.538-11.658-10.958-18.17-9.193-21.161-12.814-4.73-19.631-8.68-23.59-12.261-15.64 13.275-23.183 33.595-30.712 53.928-12.228 29.89-33.005 47.149-58.107 58.012-.686.907.09 1.706-1.19 2.04-25.115.773-171.976 1.17-224.035-.001 1.324-7.317-.306-105.282.013-130.238 3.913-1.436 7.641-2.816 10.928-4.096 12.428-2.326 25.796-16.318 50.49-1.944 8.553 4.713 50.874-1.541 75.478 4.04 14.177-12.04 29.622-23.11 60.36-22.465 9.36-13.341 20.992-26.228 44.84-27.845.416-5.82 7.638-12.636 11.63-17.734 15.56-3.308 28.696-15.168 42.427-14.812 1.953-10.77 4.754-21.05 11.642-28.952 7.88 11.285 10.032 21.76 9.686 31.884l7.269-3.075 3.618-6.258-6.12-29.455c-27.368-37.662-90.648-54.964-187.064-53.478-1.815.028-2.425-1.15-.755-1.745 35.785-12.762 113.872-15.897 162.844 1.002-35.073-59.55-120.156-97.916-218.456-56.418z" fill="#05e6ff"/></svg>